<?xml version="1.0" encoding="utf-8"?>
<!-- Generator: Adobe Illustrator 25.2.3, SVG Export Plug-In . SVG Version: 6.00 Build 0)  -->
<svg version="1.1" id="Ebene_1" xmlns="http://www.w3.org/2000/svg" xmlns:xlink="http://www.w3.org/1999/xlink" x="0px" y="0px"
	 viewBox="0 0 47.9 44.2" style="enable-background:new 0 0 47.9 44.2;" xml:space="preserve">
<style type="text/css">
	.st0{clip-path:url(#SVGID_2_);}
	.st1{fill:#FFFFFF;}
	.st2{fill:#FFD500;}
	.st3{fill:#006EB7;}
	.st4{fill:none;stroke:#FFFFFF;stroke-width:8.000000e-02;}
	.st5{fill:none;stroke:#000000;stroke-width:0.14;}
	.st6{fill:#E30613;}
	.st7{fill:#1D1D1B;}
</style>
<g>
	<defs>
		<rect id="SVGID_1_" y="0" width="47.9" height="44.2"/>
	</defs>
	<clipPath id="SVGID_2_">
		<use xlink:href="#SVGID_1_"  style="overflow:visible;"/>
	</clipPath>
	<g class="st0">
		<path class="st1" d="M47.9,24.5C47.9,11,36.9,0,23.4,0c0,0,0,0,0,0C16.9,0,10.7,2.6,6.2,7.2l3.7,3.7L0.3,22.7
			c-0.4,0.4-0.4,1.1,0,1.5c0.2,0.2,0.5,0.3,0.8,0.3L47.9,24.5z"/>
		<path class="st1" d="M23.3,24.5L36.2,3.8c1.6,0.8,3,2,4.2,3.3L23.3,24.5z"/>
		<path class="st1" d="M23.3,24.5l7-23.4c1.8,0.5,3.5,1.2,5.1,2.1L23.3,24.5z"/>
		<path class="st1" d="M22.9,23.1l-6.6-22c-1.7,0.5-3.4,1.2-4.9,2.1l11.3,20L10.4,3.8c-1.5,1-3,2.1-4.3,3.4l17.2,17.3L22.8,0
			c-1.8,0-3.6,0.3-5.4,0.7L22.9,23.1z"/>
		<path class="st1" d="M24.8,24.1L46.9,18c-0.5-1.7-1.2-3.4-2-5L24.7,23.8L44.4,12c-0.9-1.6-2.1-3-3.3-4.3L23.4,24.5h24.5
			c0-1.8-0.2-3.6-0.6-5.4L24.8,24.1z"/>
		<path class="st1" d="M9.1,11.7c4.3,4.2,8.9,8.8,13.2,12.8H1.2c-0.6,0-1.1-0.4-1.1-1c0-0.3,0.1-0.6,0.3-0.8
			C3.3,19.1,6.2,15.3,9.1,11.7"/>
		<path class="st1" d="M10.4,19.8c0.7-0.1,1.3-0.7,1.2-1.4c-0.1-0.6-0.6-1.1-1.2-1.2c-0.7-0.1-1.4,0.5-1.4,1.2s0.5,1.4,1.2,1.4
			C10.2,19.8,10.3,19.8,10.4,19.8"/>
		<path class="st1" d="M23.4,24.5l0.5-24.4c1.8,0,3.7,0.3,5.4,0.7L23.4,24.5z"/>
		<path class="st1" d="M46.9,24.1c0-13-10.5-23.6-23.6-23.6c0,0,0,0,0,0c-6.2,0-12.2,2.4-16.5,6.9l3.5,3.6L1.2,22.3
			c-0.4,0.4-0.4,1,0,1.4C1.4,23.9,1.7,24,2,24L46.9,24.1z"/>
		<path class="st2" d="M23.3,24L35.8,4.1c1.5,0.8,2.9,1.9,4,3.2L23.3,24z"/>
		<path class="st3" d="M23.3,24L30,1.5c1.7,0.5,3.3,1.2,4.9,2L23.3,24z"/>
		<path d="M23,22.7L16.6,1.5c-1.6,0.5-3.2,1.2-4.8,2l10.8,19.3L10.9,4.1C9.4,5,8.1,6.1,6.8,7.4L23.4,24L22.8,0.5
			c-1.7,0-3.5,0.3-5.1,0.7L23,22.7z"/>
		<path class="st4" d="M23,22.7L16.6,1.5c-1.6,0.5-3.2,1.2-4.8,2l10.8,19.3L10.9,4.1C9.4,5,8.1,6.1,6.8,7.4L23.4,24L22.8,0.5
			c-1.7,0-3.5,0.3-5.1,0.7L23,22.7z"/>
		<path d="M24.8,23.6l21.3-5.9c-0.5-1.6-1.1-3.2-1.9-4.8L24.6,23.4L43.6,12c-0.9-1.5-2-2.9-3.2-4.2L23.4,24H47
			c0-1.7-0.2-3.5-0.6-5.2L24.8,23.6z"/>
		<path class="st4" d="M24.8,23.6l21.3-5.9c-0.5-1.6-1.1-3.2-1.9-4.8L24.6,23.4L43.6,12c-0.9-1.5-2-2.9-3.2-4.2L23.4,24H47
			c0-1.7-0.2-3.5-0.6-5.2L24.8,23.6z"/>
		<path d="M9.7,11.7c4.1,4,8.6,8.5,12.7,12.3H2c-0.5,0.1-1.1-0.3-1.1-0.8c-0.1-0.3,0.1-0.7,0.3-0.9C4.1,18.8,6.8,15.2,9.7,11.7"/>
		<path class="st4" d="M9.7,11.7c4.1,4,8.6,8.5,12.7,12.3H2c-0.5,0.1-1.1-0.3-1.1-0.8c-0.1-0.3,0.1-0.7,0.3-0.9
			C4.1,18.8,6.8,15.2,9.7,11.7z"/>
		<path class="st1" d="M10.9,19.5c0.7,0,1.3-0.6,1.3-1.3S11.6,17,10.9,17c-0.7,0-1.3,0.6-1.3,1.3c0,0,0,0,0,0
			C9.6,19,10.2,19.6,10.9,19.5"/>
		<path class="st5" d="M10.9,19.5c0.7,0,1.3-0.6,1.3-1.3S11.6,17,10.9,17c-0.7,0-1.3,0.6-1.3,1.3c0,0,0,0,0,0
			C9.6,19,10.2,19.6,10.9,19.5z"/>
		<path class="st6" d="M23.4,24l0.5-23.5c1.8,0.1,3.5,0.3,5.2,0.7L23.4,24z"/>
	</g>
</g>
<g>
	<path class="st7" d="M38.9,43.6c4.4,0,8-3.6,8-8c0-4.4-3.6-8-8-8H9c-4.4,0-8,3.6-8,8c0,4.4,3.6,8,8,8"/>
	<path class="st1" d="M38.6,42.5c3.8,0,6.8-3,6.8-6.8c0-3.8-3-6.8-6.8-6.8H9.3c-3.8,0-6.8,3-6.8,6.8c0,3.8,3,6.8,6.8,6.8H38.6
		L38.6,42.5z"/>
	<path class="st7" d="M31,39l-0.9-0.2v-4.2l1,0l0-1.3l-1,0l0-1.1l0.9,0l0-1.2h-1.8c-0.8,0-1.4,0.1-1.9,0.5c-0.4,0.4-0.3,1.1-0.2,1.7
		h-0.8l0,1.4l0.8,0l0,4.1c-0.2,0.2-0.5,0.2-0.8,0.3l0,1.3l4.8,0L31,39L31,39z"/>
	<path class="st7" d="M17.3,37.5c0,0.7,0,1.4,0.5,1.9c0.5,0.7,1.3,0.9,2.1,0.8c0.6,0,1-0.2,1.5-0.5c0.1,0.1,0.2,0.3,0.3,0.5h3.3v-1
		c-0.3-0.2-0.3-0.2-0.6-0.5l0-5.3l-3,0l0,4.1c-0.1,0.2,0,0.4-0.1,0.6c-0.3,0.4-0.8,0.3-1-0.2l0-4.5l-4.1,0l0,1.4h1L17.3,37.5
		L17.3,37.5z"/>
	<path class="st7" d="M17.8,31.9c0-0.5,0.5-0.8,1.1-0.8c0.6,0,1.1,0.4,1.1,0.8s-0.5,0.8-1.1,0.8C18.3,32.7,17.8,32.3,17.8,31.9
		L17.8,31.9z"/>
	<path class="st7" d="M21.5,31.9c0-0.5,0.5-0.8,1.1-0.8c0.6,0,1.1,0.4,1.1,0.8c0,0.5-0.5,0.8-1.1,0.8C22,32.7,21.5,32.3,21.5,31.9
		L21.5,31.9z"/>
	<path class="st7" d="M12.5,36.5c0,0.4,0,0.9-0.1,1.3c-0.1,0.2-0.3,0.5-0.6,0.5c-0.2,0-0.4-0.1-0.5-0.3c-0.2-0.4-0.1-0.9-0.1-1.4
		c0-0.2,0-0.3,0-0.4c0-0.1,0-0.1,0-0.2c0-0.3,0-0.6,0.2-0.8c0.2-0.2,0.7-0.2,0.9,0l0.1,0.2C12.5,35.7,12.5,36.2,12.5,36.5l2.8,0
		v-5.5c-1.3,0-2.7,0-4,0v1.3l1.1,0v1.1c-0.1-0.1-0.6-0.3-0.9-0.3C10.4,33,9.3,33,8.6,34.1c-0.5,0.9-0.6,2.9-0.3,4.4
		c0.1,0.7,0.7,1.3,1.4,1.6c0.3,0.1,0.6,0.1,0.9,0.1c0.3,0,1.1,0.1,1.7-0.5c0.1,0.3,0.1,0.3,0.2,0.5c1.2,0,2.4,0.1,3.7,0
		c0-0.5,0-0.9,0-1.3c-0.3,0-0.7,0-1,0v-2.4L12.5,36.5L12.5,36.5z"/>
	<path class="st7" d="M36.1,36.8c0-0.4,0-0.8,0-1c-0.1-0.7-0.5-0.5-0.7-0.5c-0.3,0.1-0.5,0.5-0.6,1c-0.1,0.7,0,1.5,0.4,2
		c0.2,0.1,0.5,0.2,0.7,0c0.2-0.1,0.3-0.5,0.3-0.7C36.2,37.5,36.1,37.2,36.1,36.8h2.8l0,1.5c0,0.2-0.1,0.4,0.2,0.5
		c0.2,0,0.4,0.2,0.6,0.2v1.3h-3.6c0-0.1,0-0.4-0.2-0.5c-0.5,0.2-0.9,0.3-1.6,0.4c-1.4,0-2-0.8-2.2-1.5c-0.3-0.9-0.3-1.8-0.2-2.8
		c0-1,0.5-2.1,1.5-2.5c0.8-0.1,1.4-0.2,2.6,0.4c0.1-0.1,0.2-0.3,0.3-0.4h3.4v1.2c-0.3,0.1-0.5,0.2-0.8,0.3l0,1.9H36.1L36.1,36.8z"/>
</g>
</svg>
