<svg xmlns="http://www.w3.org/2000/svg" xmlns:xlink="http://www.w3.org/1999/xlink" width="1000" height="1000" viewBox="0 0 1000 1000">
  <defs>
    <clipPath id="clip-path">
      <rect id="Rectangle_8839" data-name="Rectangle 8839" width="751.782" height="226.296" fill="none"/>
    </clipPath>
    <clipPath id="clip-genc-boya-logo-tr-svg">
      <rect width="1000" height="1000"/>
    </clipPath>
  </defs>
  <g id="genc-boya-logo-tr-svg" clip-path="url(#clip-genc-boya-logo-tr-svg)">
    <g id="Group_16175" data-name="Group 16175" transform="translate(123.949 381.472)">
      <g id="Group_15273" data-name="Group 15273" transform="translate(0 5)" clip-path="url(#clip-path)">
        <path id="Path_110891" data-name="Path 110891" d="M709.951,146.651H628.469v14.423h81.482Zm-598.217-8.294c30.2,0,64.788-7.139,78.79-16.838V70.459H116.676V93.335h27.178v14.642c-13.727,3.66-19.492,4.392-31.021,4.392-29.691,0-51.952-8.614-60.713-22.621h0a26.377,26.377,0,0,1-4.072-14.165c0-18.484,17.845-39.348,68.633-39.348,23.06,0,46.121,3.843,70,11.53V20.5c-18.669-6.04-45.847-10.249-73.848-10.249C46.121,10.247,0,36.417,0,74.484A43.38,43.38,0,0,0,2.751,89.75l21.872,0-21.872,0c10.865,29.089,52.961,48.6,108.983,48.6m100.094-48.6H258.5v-5.94h85.378V60.942H258.5V34.77h89.5V11.894H211.827Zm0,46.951H349.914V113.832H258.5V89.758h-46.67ZM412.254,89.758h-46.67v46.951h46.67Zm103.5,46.951h39.257V11.894h-46.67V88.211L408.41,11.894H365.584V89.758h46.67V56.732l42.739,33.026ZM749.586,21.227c-18.393-7.321-41.729-10.981-67.808-10.981-71.653,0-112.557,31.113-112.557,64.421a43.635,43.635,0,0,0,2.714,15.087h0c9.645,26.279,45.016,48.6,106.273,48.6,27.727,0,47.494-3.478,73.574-12.445V98.642c-26.9,8.6-43.376,13.727-67.808,13.727-29.075,0-51.888-8.857-61.608-22.622h-.006a26.787,26.787,0,0,1-5.1-15.628c0-22.144,28-37.883,67.808-37.883,23.06,0,43.925,5.125,64.514,12.811ZM744.3,6.889h-1.407V4.134h1.784c.912,0,1.9.177,1.9,1.327,0,1.368-1.09,1.427-2.28,1.427m3.826,4.817L745.646,7.88a2.228,2.228,0,0,0,2.28-2.359c0-1.664-.971-2.478-3.032-2.478h-3.351v8.662h1.349V7.979h1.426l2.359,3.726Zm2.6-4.337a6.307,6.307,0,1,1-6.307-6.307,6.307,6.307,0,0,1,6.307,6.307m1.061,0a7.369,7.369,0,1,0-7.368,7.368,7.368,7.368,0,0,0,7.368-7.368" fill="#161615"/>
        <path id="Path_110892" data-name="Path 110892" d="M538.888,175.764V153.582h-5.7v42.691h5.7V184.44l7.8-9.3,12.332,21.13h6.692l-15.182-25.839,13.757-16.853h-6.879L539.32,175.764Zm-33.027-27.48a2.97,2.97,0,0,0,2.416.961,3.3,3.3,0,0,0,2.572-.991,3.474,3.474,0,0,0,.9-2.417,3.283,3.283,0,0,0-.9-2.2,3.24,3.24,0,0,0-2.572-1.023,2.884,2.884,0,0,0-2.416,1.023,3.483,3.483,0,0,0-.8,2.2,3.676,3.676,0,0,0,.8,2.448m5.2,5.3h-5.7v42.691h5.7Zm-34.076,31.972-5.7-8.86-15.43-23.111h-5.39v42.691h5.7V164.612h.432l6.074,9.355,14.933,22.307h5.513V153.582h-5.7v31.972ZM423.3,171.861a7.746,7.746,0,0,1-5.484,1.983H406.972V158.787h10.843a7.61,7.61,0,0,1,5.484,2.045,7.271,7.271,0,0,1,2.137,5.514,7.151,7.151,0,0,1-2.137,5.515m-22.028-18.279v42.691h5.7V179.11H418l7.25,17.164h6.32l-7.992-18.217a10.857,10.857,0,0,0,3.191-2.014,14.051,14.051,0,0,0,2.385-2.818,12.3,12.3,0,0,0,1.486-3.316,13.1,13.1,0,0,0,.5-3.562,15.729,15.729,0,0,0-.682-4.555,11.8,11.8,0,0,0-2.169-4.09,11.325,11.325,0,0,0-3.779-2.974,12.214,12.214,0,0,0-5.513-1.146Zm-19.392,42.691v-5.143h-22.8V177.5h19.518v-5.143H359.077v-13.57h22.8v-5.2h-28.5v42.691Zm-63.635-8.8-4.15-13.88-6.259-20.013h-6.257l13.756,42.691h6.2l13.756-42.691h-6.258l-6.072,19.27-4.336,14.622Z" transform="translate(62.57 29.589)" fill="#0090df"/>
        <path id="Path_110893" data-name="Path 110893" d="M288.332,171.228a8.037,8.037,0,0,0-1.767-2.572,8.69,8.69,0,0,0-2.6-1.734,8,8,0,0,0-6.32,0,8.7,8.7,0,0,0-2.6,1.734,7.643,7.643,0,0,0-1.735,2.572,8.37,8.37,0,0,0,0,6.32,7.633,7.633,0,0,0,1.735,2.572,8.708,8.708,0,0,0,2.6,1.735,8.01,8.01,0,0,0,6.32,0,8.694,8.694,0,0,0,2.6-1.735,8.025,8.025,0,0,0,1.767-2.572,8,8,0,0,0,0-6.32" transform="translate(56.576 34.497)" fill="#8c8b8b"/>
        <path id="Path_110894" data-name="Path 110894" d="M269.8,159.579l3.16,9.915,3.409,10.161H263.042l3.408-10.161,3.1-9.915Zm17.721,34.885-14.932-42.692h-5.763l-14.87,42.692H257.9l3.284-9.6h16.977l3.346,9.6ZM224.408,171.91l-4.491-9.976-4.957-10.161H208.7l13.012,26.333v16.359h5.825V178.044l12.95-26.271h-6.2l-4.832,9.852-4.615,10.285Zm-38.445,7.931a11.2,11.2,0,0,1-.8,4.462,8.1,8.1,0,0,1-2.193,3.036,8.986,8.986,0,0,1-3.18,1.735,13.319,13.319,0,0,1-7.629,0,8.646,8.646,0,0,1-3.181-1.735,8.279,8.279,0,0,1-2.163-3.036,11.218,11.218,0,0,1-.8-4.462V166.457a11.212,11.212,0,0,1,.8-4.46,8.788,8.788,0,0,1,2.131-3.067,8.147,8.147,0,0,1,3.15-1.767,13.639,13.639,0,0,1,7.722,0,8.432,8.432,0,0,1,3.18,1.767A8.578,8.578,0,0,1,185.159,162a11.191,11.191,0,0,1,.8,4.46Zm5.824-14.065a14.387,14.387,0,0,0-1.18-5.886,13.222,13.222,0,0,0-3.289-4.555,15.188,15.188,0,0,0-5.029-2.943,19.734,19.734,0,0,0-12.727,0,14.812,14.812,0,0,0-5,2.943,13.066,13.066,0,0,0-3.229,4.555,14.72,14.72,0,0,0-1.148,5.886v14.747a14.876,14.876,0,0,0,1.148,5.948,12.749,12.749,0,0,0,3.229,4.523,14.67,14.67,0,0,0,5,2.881,19.2,19.2,0,0,0,6.395,1.023,18.541,18.541,0,0,0,6.238-1.023,15.454,15.454,0,0,0,5.029-2.881,13.059,13.059,0,0,0,3.352-4.523,14.2,14.2,0,0,0,1.211-5.948ZM133.172,187.4a7.734,7.734,0,0,1-5.7,1.921H115.948V174.7h11.4a8.53,8.53,0,0,1,2.881.5,7.791,7.791,0,0,1,2.478,1.425,6.777,6.777,0,0,1,2.386,5.329,7.377,7.377,0,0,1-1.921,5.453m.591-21.47a6.026,6.026,0,0,1-1.544,2.014,6.382,6.382,0,0,1-2.253,1.207,9.082,9.082,0,0,1-2.717.4h-11.3V156.977h10.806a9.648,9.648,0,0,1,5.465,1.425q2.132,1.427,2.131,4.772a6.232,6.232,0,0,1-.587,2.757m5.482,10.5a10.247,10.247,0,0,0-4.523-4.337,9.332,9.332,0,0,0,4.09-4.058,11.408,11.408,0,0,0,1.177-4.988,11.578,11.578,0,0,0-.805-4.276,10.462,10.462,0,0,0-2.355-3.593,11.5,11.5,0,0,0-3.811-2.479,13.523,13.523,0,0,0-5.174-.929H110.123v42.692h18.4a11.889,11.889,0,0,0,5.266-1.116,11.7,11.7,0,0,0,3.811-2.881,12.231,12.231,0,0,0,2.293-4,13.72,13.72,0,0,0,.774-4.523,11.794,11.794,0,0,0-1.425-5.515" transform="translate(22.848 31.399)" fill="#6ac7f4"/>
      </g>
    </g>
  </g>
</svg>
