<svg xmlns="http://www.w3.org/2000/svg" xmlns:xlink="http://www.w3.org/1999/xlink" width="223" height="57" viewBox="0 0 223 57">
  <defs>
    <clipPath id="clip-kayalar-kimya-logo-neww">
      <rect width="223" height="57"/>
    </clipPath>
  </defs>
  <g id="kayalar-kimya-logo-neww" clip-path="url(#clip-kayalar-kimya-logo-neww)">
    <g id="Group_15334" data-name="Group 15334" transform="translate(4569 -7039.215)">
      <path id="Path_110916" data-name="Path 110916" d="M39.676,3.232c.309.6.669,1.169,1.044,1.8a2.367,2.367,0,0,1-.874-.157l-.956-.206-11.451.008c-1.321-.1-2.28-.1-3.109.883a2.734,2.734,0,0,0-.664,1.933l2.188,4.758,2.7,4.789L33,24.959l4.789,8.594,3.732,6.6,3.03,5.288a3.023,3.023,0,0,0,2.973,1.517,3.324,3.324,0,0,0,1.958-1.316l.972-1.545,3.46-5.646L55.4,36.083a14.852,14.852,0,0,0,.869-3.115s1.8,2.714,1.959,4.444a9.971,9.971,0,0,1-.767,4.41L56.9,42.9l-2.73,4.531c-.447.778-.953,1.375-1.429,2.119a7.989,7.989,0,0,1-8.278,2.284,7.2,7.2,0,0,1-3.817-3.288l-2.415-4.3-4.347-7.634L31.071,31.65a1.149,1.149,0,0,1-.215-.386l-3.216-5.79L25.983,22.5l-3.131-5.561c-.5-.914-1.092-1.758-1.531-2.629l-1.572-2.9a7.191,7.191,0,0,1-.714-6.691A7.223,7.223,0,0,1,24.852.073L26.16.006,32.244,0c3.076-.039,4.964.4,6.746,2.286ZM24.107,37.154l-2.424,4.1L20.072,43.84c-.388.52-.774,1.2-1.489,1.246a1.289,1.289,0,0,1-.958-.4l-.415-.628-1.4-2.346L16.96,39.8l1.756-2.649Zm-12.762-.023a9.583,9.583,0,0,1,.6,1.045L15.1,43.75a4.858,4.858,0,0,0,2.972,2.845,2.73,2.73,0,0,0,2.6-.8l.658-.885,1.357-2.245,1.416-2.358,1.258-2.016.259.214,2.544,4.4-1.987,3.5-1.644,2.716a8,8,0,0,1-7.991,2.616,7.544,7.544,0,0,1-4.173-2.858L7.026,39.391a1.792,1.792,0,0,1,.03-1.6,1.142,1.142,0,0,1,.924-.651Zm34.99-6.243a1.749,1.749,0,0,1,1.5.857,1.729,1.729,0,0,1-.072,1.529L46.31,35.56h-5.6l-2.627-4.516c-.067-.139-.126-.183-.037-.157Zm-25.056-.273s2.6,4.768,2.587,4.861H7.885a2.915,2.915,0,0,0-2.359,1.771,2.764,2.764,0,0,0-.143,2.088,5.52,5.52,0,0,0,.644,1.545l3.746,6.5a11.6,11.6,0,0,0,3.288,4.289,15.581,15.581,0,0,1-4.112-.209A7.169,7.169,0,0,1,4.9,48.312L3.61,46c-.4-.729-.85-1.4-1.129-2.073L.423,40.192a6.845,6.845,0,0,1,1.515-7.16,7.346,7.346,0,0,1,4.583-2.417ZM47.447,24.4a5.075,5.075,0,0,1,2.607.6,7.987,7.987,0,0,1,4.619,7.484c-.117,1.074-2.56,5.726-2.56,5.726l-4.073,6.946A3.086,3.086,0,0,1,46.9,45.5a3.119,3.119,0,0,1-.7-.286s-1.757-2.842-1.845-3.19l.386-.7,1.873-3.115,2.372-3.918a3.4,3.4,0,0,0,.515-3.1A2.993,2.993,0,0,0,46.8,29.3H37.106L34.481,24.4Zm-29.671,0,.215.317s2.394,4.207,2.358,4.356l-12.46.018H7.642a11.926,11.926,0,0,0-3.416.613c.12-.5,2.594-4.06,4.06-4.688a4.763,4.763,0,0,1,2.044-.615ZM35.717,12.6a2.078,2.078,0,0,1,1.609,1,2.562,2.562,0,0,1-.094,1.563s-4.119,6.72-4.145,6.82l-1.258-2.088L30.4,17.348s2.681-4.794,2.8-4.76ZM17.076,8.214c-.393,1.506,2.831,6.933,2.831,6.933l4.088,7.232,2.487,4.4,1.9,3.4,2.559,4.531.457.744,1.959,3.46,6.018,10.607a15.737,15.737,0,0,0,2.03,2.43c-.034.067-5.713-.242-7.448-2.346l-.3-.5-2.517-4.462-5.2-9.106-4.117-7.232L20.607,26.14c-.839-1.4-1.489-2.829-2.316-4.145l-1.616-2.917c-.546-.844-.92-1.748-1.4-2.559a7.044,7.044,0,0,1,.214-5.991L17.031,8.16ZM39.139,6.283c2.669.494,4.63,3.221,5.2,5.836a8.558,8.558,0,0,1-.644,4.959l-1.258,2.116-2.217,3.514-5.494.018,1.679-3.1,1.328-2.217,1.086-1.887a3.587,3.587,0,0,0-.557-3.489,3.361,3.361,0,0,0-2.013-1.086L27,10.935,25.46,8.188a1.479,1.479,0,0,1,.529-1.6,4.242,4.242,0,0,1,2.043-.3Z" transform="translate(-4568.755 7039.216)" fill="#499d58"/>
      <path id="Path_110917" data-name="Path 110917" d="M201.769,22.941h7.269l-3.457,16.114L218.95,22.941h8.9L212.9,39.564l8.539,18.706h-9.048l-6.964-18.451-3.915,18.451h-7.269ZM247.33,33.514a49.069,49.069,0,0,0-1.677,6.405l-2.084,9.863a8.873,8.873,0,0,0-.255,1.931,4.483,4.483,0,0,0,1.22,3.151l-5.642,4.22a4.839,4.839,0,0,1-1.982-3.2,9.245,9.245,0,0,1-6.914,3.1q-7.167,0-7.167-8.285a23.946,23.946,0,0,1,1.576-8.64,17.741,17.741,0,0,1,3.915-6.253,14.035,14.035,0,0,1,10.369-4.068q5.592,0,8.642,1.779M239.6,37.43a3.3,3.3,0,0,0-1.829-.41,6.959,6.959,0,0,0-2.339.306A6.152,6.152,0,0,0,233,39.258a12.794,12.794,0,0,0-2.389,5.237,22.861,22.861,0,0,0-.813,5.9q0,3.355,2.084,3.357a4.592,4.592,0,0,0,3-1.272,6.826,6.826,0,0,0,2.034-2.8Zm9.064-4.781,7.015-.811,1.27,15.2q.1,1.475.2,5.389.915-2.236,3.508-7.777l6.557-12.4h7.321l-15.1,26.432q-3.812,6.708-6.811,8.589a15.889,15.889,0,0,1-6.811,2.392l-1.373-4.578a14.6,14.6,0,0,0,4.575-1.624,14.388,14.388,0,0,0,4.523-5.185h-1.88q-.2-3.661-.66-7.319Zm46.222.865a48.97,48.97,0,0,0-1.677,6.405l-2.084,9.863a8.839,8.839,0,0,0-.254,1.931,4.488,4.488,0,0,0,1.219,3.151l-5.642,4.22a4.838,4.838,0,0,1-1.982-3.2,9.245,9.245,0,0,1-6.914,3.1q-7.168,0-7.167-8.285a23.947,23.947,0,0,1,1.576-8.64,17.742,17.742,0,0,1,3.915-6.253,14.037,14.037,0,0,1,10.37-4.068q5.592,0,8.641,1.779m-7.726,3.916a3.31,3.31,0,0,0-1.83-.41,6.964,6.964,0,0,0-2.339.306,6.149,6.149,0,0,0-2.439,1.931,12.807,12.807,0,0,0-2.389,5.237,22.858,22.858,0,0,0-.812,5.9q0,3.355,2.084,3.357a4.588,4.588,0,0,0,3-1.272,6.811,6.811,0,0,0,2.034-2.8ZM308.07,20.348a21.616,21.616,0,0,1-.509,8.084L303.444,47.7a36.058,36.058,0,0,0-.864,5.033q0,1.471,1.322,1.472a2.191,2.191,0,0,0,.762-.1l.3,4.065a11.859,11.859,0,0,1-4.218.713q-5.391,0-5.39-4.678a29.808,29.808,0,0,1,.763-4.726l4.117-19.42a30.617,30.617,0,0,0,.864-5.692,5.826,5.826,0,0,0-.254-1.83Zm24.517,13.166a49,49,0,0,0-1.679,6.405l-2.084,9.863a8.843,8.843,0,0,0-.254,1.931,4.483,4.483,0,0,0,1.22,3.151l-5.643,4.22a4.839,4.839,0,0,1-1.982-3.2,9.242,9.242,0,0,1-6.912,3.1q-7.17,0-7.169-8.285a23.92,23.92,0,0,1,1.577-8.64,17.739,17.739,0,0,1,3.913-6.253,14.037,14.037,0,0,1,10.37-4.068q5.592,0,8.643,1.779M324.86,37.43a3.308,3.308,0,0,0-1.829-.41,6.958,6.958,0,0,0-2.339.306,6.143,6.143,0,0,0-2.441,1.931,12.812,12.812,0,0,0-2.389,5.237,22.861,22.861,0,0,0-.812,5.9q0,3.355,2.084,3.357a4.589,4.589,0,0,0,3-1.272,6.814,6.814,0,0,0,2.034-2.8Zm11.2-3.561,6.3-2.49a7.459,7.459,0,0,1,.61,4.22q3.864-3.966,7.269-3.965a5.163,5.163,0,0,1,2.339.559l-2.949,6a3.823,3.823,0,0,0-1.982-.51q-2.236,0-4.93,3.558l-3.609,17.03H332.3l3.66-17.182a20,20,0,0,0,.51-4.22,10.187,10.187,0,0,0-.408-3" transform="translate(-4698.757 7025.692)" fill="#161615"/>
    </g>
  </g>
</svg>
